<svg id="Layer_1" data-name="Layer 1" xmlns="http://www.w3.org/2000/svg" viewBox="0 0 357.59 398.98"><title>1467 [Converted]</title><path d="M253.81,206.84l-.16.18.12.1Zm150,217.65c-5.35-68-13-132.65-24.64-147-16-19.7-102.59-44.08-102.59-44.08s-22.49,58.79-23.74,62.95c-.73,2.1-13.21-9-13.89-6.87-8,31-26,83.63-31.67,114.34l-.15-111.34,12.18-15.9-14.61-13.18L255.12,215c-.07,0-1.64-8.13-1.69-8.15a117.05,117.05,0,0,1,4.91-40.1c6.61,2,13.93-20.93,16.52-28.7a14.49,14.49,0,0,0-2.59-13.57c.33-1.32,0-1.54,3.88-7.78,3.24-5.16-1.93-42.69-5.82-54.33s-13.58-18.76-30.42-25.23-39.44-11.64-50.44-11.64-14.87,5.82-18.11,9.06a101.39,101.39,0,0,1-13.58,1.29c-5.83,0-14.5,8.61-20.15,16.78-9,13-9,41.47-8.17,49.85,2,20.35,5,24,6.72,24.26a14.47,14.47,0,0,0-4.84,2.55c-4.75,4.35,5.81,31.13,7.75,34.35s3.81,3.53,3.81,3.53,3,8.47,4.53,12.94c2.46,7.31,9.67,12,9.69,12.29.28,2.91,6.36,17.17,8.19,32.61-.86.65-1.92,1.52-3.09,2.49l.1.72,29.18,36.35-13,12.47,7.73,15.47-15,109.62-13.76-110.9L147.94,299l-4.44-56.74-4,2.89c-18,9.39-76.77,38.94-81.76,56.36-2.85,10-8.18,66.17-11.57,123Z" transform="translate(-46.21 -25.51)"/><path d="M254.26,213.29c-6.45-4.3-82,5.73-82,5.73l-6.24.43-33.74,29.66.86,3.87,4.3,1.29,2.72-6.88L164,226.47l22.92,20.92,37-2.29L254,217.3l21.78,17.77,1.22,7.16,9.67-2.58S260.7,217.59,254.26,213.29Z" transform="translate(-46.21 -25.51)"/></svg>